<svg width="41" height="41" viewBox="0 0 41 41" fill="none" xmlns="http://www.w3.org/2000/svg">
<path d="M36.1806 0.625C37.3593 0.625 38.4898 1.09325 39.3233 1.92675C40.1567 2.76024 40.625 3.8907 40.625 5.06944V36.1806C40.625 37.3593 40.1567 38.4898 39.3233 39.3233C38.4898 40.1567 37.3593 40.625 36.1806 40.625H5.06944C3.8907 40.625 2.76024 40.1567 1.92675 39.3233C1.09325 38.4898 0.625 37.3593 0.625 36.1806V5.06944C0.625 3.8907 1.09325 2.76024 1.92675 1.92675C2.76024 1.09325 3.8907 0.625 5.06944 0.625H36.1806ZM35.0694 35.0694V23.2917C35.0694 21.3703 34.3062 19.5277 32.9476 18.1691C31.589 16.8105 29.7463 16.0472 27.825 16.0472C25.9361 16.0472 23.7361 17.2028 22.6694 18.9361V16.4694H16.4694V35.0694H22.6694V24.1139C22.6694 22.4028 24.0472 21.0028 25.7583 21.0028C26.5835 21.0028 27.3748 21.3306 27.9582 21.914C28.5417 22.4974 28.8694 23.2888 28.8694 24.1139V35.0694H35.0694ZM9.24722 12.9806C10.2374 12.9806 11.187 12.5872 11.8871 11.8871C12.5872 11.187 12.9806 10.2374 12.9806 9.24722C12.9806 7.18056 11.3139 5.49167 9.24722 5.49167C8.25119 5.49167 7.29595 5.88734 6.59164 6.59164C5.88734 7.29595 5.49167 8.25119 5.49167 9.24722C5.49167 11.3139 7.18056 12.9806 9.24722 12.9806ZM12.3361 35.0694V16.4694H6.18056V35.0694H12.3361Z" fill="white" fill-opacity="0.6"/>
</svg>
